<mxfile host="65bd71144e">
    <diagram id="iTvsSP0Hu4RqptoAbtLN" name="第1頁">
        <mxGraphModel dx="576" dy="1596" grid="1" gridSize="10" guides="1" tooltips="1" connect="1" arrows="1" fold="1" page="1" pageScale="1" pageWidth="827" pageHeight="1169" math="0" shadow="0">
            <root>
                <mxCell id="0"/>
                <mxCell id="1" parent="0"/>
                <mxCell id="2" value="" style="ellipse;shape=cloud;whiteSpace=wrap;html=1;fillColor=#b1ddf0;strokeColor=#10739e;" vertex="1" parent="1">
                    <mxGeometry x="50" y="-30" width="700" height="550" as="geometry"/>
                </mxCell>
                <mxCell id="3" value="&lt;font style=&quot;font-size: 26px;&quot;&gt;網路掛號系統&lt;/font&gt;" style="text;html=1;strokeColor=none;fillColor=none;align=center;verticalAlign=middle;whiteSpace=wrap;rounded=0;fontStyle=1;fontSize=26;" vertex="1" parent="1">
                    <mxGeometry x="340" y="510" width="181" height="40" as="geometry"/>
                </mxCell>
                <mxCell id="4" value="使用者" style="ellipse;whiteSpace=wrap;html=1;fontSize=19;fillColor=#B3B3B3;" vertex="1" parent="1">
                    <mxGeometry x="130" y="150" width="120" height="80" as="geometry"/>
                </mxCell>
                <mxCell id="5" value="個人資料" style="ellipse;whiteSpace=wrap;html=1;fontSize=19;fillColor=#B3B3B3;" vertex="1" parent="1">
                    <mxGeometry x="220" y="260" width="120" height="80" as="geometry"/>
                </mxCell>
                <mxCell id="6" value="初診病歷" style="ellipse;whiteSpace=wrap;html=1;fontSize=19;fillColor=#B3B3B3;" vertex="1" parent="1">
                    <mxGeometry x="370" y="120" width="120" height="80" as="geometry"/>
                </mxCell>
                <mxCell id="7" value="院方" style="ellipse;whiteSpace=wrap;html=1;fontSize=19;fillColor=#B3B3B3;" vertex="1" parent="1">
                    <mxGeometry x="570" y="320" width="120" height="80" as="geometry"/>
                </mxCell>
                <mxCell id="8" value="" style="endArrow=classic;html=1;fontSize=19;strokeColor=#000000;" edge="1" parent="1" source="4" target="5">
                    <mxGeometry width="50" height="50" relative="1" as="geometry">
                        <mxPoint x="265" y="200" as="sourcePoint"/>
                        <mxPoint x="315" y="150" as="targetPoint"/>
                    </mxGeometry>
                </mxCell>
                <mxCell id="9" value="" style="endArrow=classic;html=1;fontSize=19;strokeColor=#000000;" edge="1" parent="1" source="5" target="6">
                    <mxGeometry width="50" height="50" relative="1" as="geometry">
                        <mxPoint x="258.9736659610103" y="207.94733192202057" as="sourcePoint"/>
                        <mxPoint x="281.0263340389897" y="252.05266807797943" as="targetPoint"/>
                    </mxGeometry>
                </mxCell>
                <mxCell id="10" value="" style="endArrow=classic;html=1;fontSize=19;strokeColor=#000000;" edge="1" parent="1" source="17" target="7">
                    <mxGeometry width="50" height="50" relative="1" as="geometry">
                        <mxPoint x="430.00366596101026" y="277.94733192202057" as="sourcePoint"/>
                        <mxPoint x="452.0563340389897" y="322.05266807797943" as="targetPoint"/>
                    </mxGeometry>
                </mxCell>
                <mxCell id="11" value="" style="endArrow=classic;html=1;fontSize=19;strokeColor=#000000;" edge="1" parent="1" source="13" target="4">
                    <mxGeometry width="50" height="50" relative="1" as="geometry">
                        <mxPoint x="150.00366596101028" y="85.89733192202056" as="sourcePoint"/>
                        <mxPoint x="172.05633403898972" y="130.00266807797942" as="targetPoint"/>
                    </mxGeometry>
                </mxCell>
                <mxCell id="13" value="使用者預約掛號" style="text;html=1;strokeColor=none;fillColor=none;align=center;verticalAlign=middle;whiteSpace=wrap;rounded=0;fontSize=19;" vertex="1" parent="1">
                    <mxGeometry x="60" y="60" width="150" height="60" as="geometry"/>
                </mxCell>
                <mxCell id="15" value="&lt;font&gt;初診&lt;/font&gt;" style="text;html=1;strokeColor=none;fillColor=none;align=center;verticalAlign=middle;whiteSpace=wrap;rounded=0;fontSize=19;fontColor=#000000;" vertex="1" parent="1">
                    <mxGeometry x="300" y="190" width="50" height="70" as="geometry"/>
                </mxCell>
                <mxCell id="16" value="&lt;font&gt;複診&lt;/font&gt;" style="text;html=1;strokeColor=none;fillColor=none;align=center;verticalAlign=middle;whiteSpace=wrap;rounded=0;fontSize=19;fontColor=#000000;" vertex="1" parent="1">
                    <mxGeometry x="380" y="280" width="50" height="70" as="geometry"/>
                </mxCell>
                <mxCell id="17" value="個人健康資料" style="ellipse;whiteSpace=wrap;html=1;fontSize=19;fillColor=#B3B3B3;" vertex="1" parent="1">
                    <mxGeometry x="464" y="230" width="120" height="80" as="geometry"/>
                </mxCell>
                <mxCell id="18" value="" style="endArrow=classic;html=1;fontSize=19;strokeColor=#000000;exitX=1;exitY=1;exitDx=0;exitDy=0;" edge="1" parent="1" source="6" target="17">
                    <mxGeometry width="50" height="50" relative="1" as="geometry">
                        <mxPoint x="384.99994184595187" y="199.99627962647924" as="sourcePoint"/>
                        <mxPoint x="441.31787143341796" y="230.00219809782288" as="targetPoint"/>
                    </mxGeometry>
                </mxCell>
                <mxCell id="19" value="掛號成功" style="text;html=1;strokeColor=none;fillColor=none;align=center;verticalAlign=middle;whiteSpace=wrap;rounded=0;fontSize=19;fontColor=#000000;" vertex="1" parent="1">
                    <mxGeometry x="585" y="290" width="90" height="20" as="geometry"/>
                </mxCell>
                <mxCell id="24" value="" style="endArrow=classic;html=1;fontSize=19;strokeColor=#000000;entryX=0.042;entryY=0.688;entryDx=0;entryDy=0;entryPerimeter=0;" edge="1" parent="1" source="5" target="17">
                    <mxGeometry width="50" height="50" relative="1" as="geometry">
                        <mxPoint x="482.42640687119297" y="198.28427124746213" as="sourcePoint"/>
                        <mxPoint x="517.435622171269" y="221.80800949006107" as="targetPoint"/>
                        <Array as="points"/>
                    </mxGeometry>
                </mxCell>
                <mxCell id="26" value="&lt;font style=&quot;font-size: 19px;&quot;&gt;掛號明細&lt;/font&gt;" style="rounded=1;whiteSpace=wrap;html=1;fontSize=26;" vertex="1" parent="1">
                    <mxGeometry x="364" y="370" width="100" height="50" as="geometry"/>
                </mxCell>
                <mxCell id="28" value="" style="endArrow=classic;html=1;strokeColor=#000000;fontSize=19;fontColor=#000000;dashed=1;entryX=0.5;entryY=1;entryDx=0;entryDy=0;exitX=0;exitY=0.5;exitDx=0;exitDy=0;" edge="1" parent="1" source="26" target="4">
                    <mxGeometry width="50" height="50" relative="1" as="geometry">
                        <mxPoint x="340" y="410" as="sourcePoint"/>
                        <mxPoint x="390" y="360" as="targetPoint"/>
                        <Array as="points">
                            <mxPoint x="190" y="395"/>
                        </Array>
                    </mxGeometry>
                </mxCell>
                <mxCell id="29" value="" style="endArrow=classic;html=1;strokeColor=#000000;fontSize=19;fontColor=#000000;dashed=1;entryX=1;entryY=0.5;entryDx=0;entryDy=0;" edge="1" parent="1" source="7" target="26">
                    <mxGeometry width="50" height="50" relative="1" as="geometry">
                        <mxPoint x="685" y="495" as="sourcePoint"/>
                        <mxPoint x="505" y="330" as="targetPoint"/>
                        <Array as="points"/>
                    </mxGeometry>
                </mxCell>
                <mxCell id="30" value="查詢或取消" style="text;html=1;strokeColor=none;fillColor=none;align=center;verticalAlign=middle;whiteSpace=wrap;rounded=0;fontSize=19;fontColor=#000000;" vertex="1" parent="1">
                    <mxGeometry x="210" y="340" width="120" height="65" as="geometry"/>
                </mxCell>
            </root>
        </mxGraphModel>
    </diagram>
</mxfile>